  <svg
            width="80"
            height="80"
            viewBox="0 0 163 163"
            fill="none"
            xmlns="http://www.w3.org/2000/svg"
          >
            <path
              d="M145.172 48.3906C143.766 48.3906 142.625 49.5316 142.625 50.9375V104.422C142.625 105.825 141.481 106.969 140.078 106.969H66.2188V25.4688H91.6875V48.3906C91.6875 49.2744 92.1459 50.0919 92.8947 50.558C93.6461 51.0215 94.5833 51.0648 95.3728 50.6701L104.422 46.1443L113.471 50.6675C113.83 50.8484 114.22 50.9375 114.609 50.9375C115.075 50.9375 115.539 50.8102 115.949 50.558C116.698 50.0919 117.156 49.2744 117.156 48.3906V40.75C117.156 39.3441 116.015 38.2031 114.609 38.2031C113.204 38.2031 112.063 39.3441 112.063 40.75V44.2698L105.56 41.02C104.845 40.6609 103.999 40.6609 103.281 41.02L96.7813 44.2698V25.4688H109.516C110.922 25.4688 112.063 24.3277 112.063 22.9219C112.063 21.516 110.922 20.375 109.516 20.375H33.1094C28.8968 20.375 25.4688 23.8031 25.4688 28.0156V104.422C25.4688 108.634 28.8968 112.062 33.1094 112.062H140.078C144.291 112.062 147.719 108.634 147.719 104.422V50.9375C147.719 49.5316 146.578 48.3906 145.172 48.3906ZM30.5625 104.422V28.0156C30.5625 26.6123 31.706 25.4688 33.1094 25.4688H61.125V106.969H33.1094C31.706 106.969 30.5625 105.825 30.5625 104.422Z"
              fill="green"
            />
            <path
              d="M140.078 0C127.441 0 117.156 10.2843 117.156 22.9219C117.156 35.5595 127.441 45.8438 140.078 45.8438C152.716 45.8438 163 35.5595 163 22.9219C163 10.2843 152.716 0 140.078 0ZM140.078 40.75C130.247 40.75 122.25 32.7528 122.25 22.9219C122.25 13.0909 130.247 5.09375 140.078 5.09375C149.909 5.09375 157.906 13.0909 157.906 22.9219C157.906 32.7528 149.909 40.75 140.078 40.75Z"
              fill="green"
            />
            <path
              d="M145.919 16.0281L137.532 24.415L134.239 21.1219C133.243 20.126 131.633 20.126 130.637 21.1219C129.642 22.1177 129.642 23.7273 130.637 24.7232L135.731 29.8169C136.228 30.3135 136.88 30.5631 137.532 30.5631C138.184 30.5631 138.836 30.3135 139.333 29.8169L149.52 19.6294C150.516 18.6336 150.516 17.0239 149.52 16.0281C148.524 15.0323 146.915 15.0323 145.919 16.0281Z"
              fill="green"
            />
            <path
              d="M92.8088 124.7L83.3217 132.438H64.8517C65.7228 130.937 66.2194 129.198 66.2194 127.344C66.2194 121.725 61.6503 117.156 56.0319 117.156H24.0406C20.638 117.156 17.4416 118.483 15.0374 120.887L0.746871 135.175C-0.248957 136.171 -0.248957 137.781 0.746871 138.777C1.7427 139.772 3.35232 139.772 4.34815 138.777L18.6387 124.489C20.0802 123.045 22.0005 122.25 24.0406 122.25H56.0319C58.8411 122.25 61.1256 124.535 61.1256 127.344C61.1256 130.153 58.8411 132.438 56.0319 132.438H40.7506C39.3448 132.438 38.2038 133.579 38.2038 134.984C38.2038 136.39 39.3448 137.531 40.7506 137.531H84.2284C84.8141 137.531 85.3846 137.328 85.838 136.958L96.1223 128.571C96.1885 128.518 96.2522 128.459 96.3133 128.398C98.7405 125.974 102.619 125.719 104.962 127.828C106.213 128.953 106.926 130.494 106.969 132.168C107.013 133.841 106.386 135.415 105.278 136.525L92.5465 148.249C91.1304 149.547 89.2915 150.266 87.3687 150.266H34.0498C33.4258 150.266 32.8222 150.495 32.3561 150.91L23.7757 158.551C22.7239 159.488 22.6322 161.097 23.5669 162.147C24.0712 162.712 24.769 163 25.4694 163C26.0705 163 26.6766 162.789 27.1631 162.356L35.0202 155.359H87.3687C90.5726 155.359 93.6365 154.165 95.9949 151.995L108.803 140.198C110.953 138.048 112.14 135.071 112.061 132.033C111.979 128.951 110.67 126.111 108.37 124.04C104.007 120.111 97.1945 120.409 92.8088 124.7Z"
              fill="green"
            />
          </svg>